<svg xmlns="http://www.w3.org/2000/svg" width="250" height="250" viewBox="0 0 250 250">
<!-- SVG created with Arrow, by QuiverAI (https://quiver.ai) -->
  <path d="m242.5 75.92h-13.49v-20.36h-14.93v-7.24h-96.05v-13.4h-13.94v-14.92h-76.41v14.92h-7.94v7.24h-6.48v33.76h-5.76v137.7h12.58v14.36h208.8v-14.36h13.58v-137.7z" fill="#D27100"/>
  <path d="m20.08 75.92v137.7h208.8v-137.7h-208.8z" fill="#FED402"/>
  <path d="m228.9 75.92h-14.84v111h-6.47v7.24h-20.82v6.7h-166.7v12.79h208.8v-137.7z" fill="#FCA400"/>
  <path d="m20.08 75.92v124.9h6.98v-117.3h187v-7.59h-194z" fill="#FDF071"/>
  <path d="m214.1 55.56v-7.24h-96.05v-13.4h-13.94v-14.92h-76.41v14.92h76.41v7.24h5.19v13.4h104.8z" fill="#D27100"/>
  <path d="m27.68 34.92v34.31h186.4v-13.67h-102.8v-13.4h-7.2v-7.24h-76.41z" fill="#FED402"/>
  <path d="m104.1 34.92h-76.41v34.31h6.81v-27.07h69.6v-7.24z" fill="#FDF071"/>
  <path d="m104.1 48.32h6.47v7.24h-6.47v-7.24z" fill="#FDF071"/>
  <path d="m111.3 55.56v7.91h102.4v-7.91h-102.4z" fill="#FDF071"/>
  <path d="m20.08 213.6v14.36h208.8v-14.36h-208.8z" fill="#D27100"/>
</svg>